<?xml version="1.0" encoding="utf8" standalone="no"?>
<svg viewBox="0 0 140 190" xmlns="http://www.w3.org/2000/svg" xmlns:xlink="http://www.w3.org/1999/xlink">
<defs>
<linearGradient id="linearGradient8304">
<stop offset="0" stop-color="#830007"/>
<stop offset="1" stop-color="#f00"/>
</linearGradient>
<linearGradient gradientUnits="userSpaceOnUse" id="linearGradient4853" x1="2" x2="109" y1="62.09952" y2="127.69501">
<stop offset="0" stop-color="#ebf0d0"/>
<stop offset="1" stop-color="#ffffeb"/>
</linearGradient>
<linearGradient gradientTransform="scale(.85424,1.17063)" gradientUnits="userSpaceOnUse" id="linearGradient8318" x1="138.23376" x2="36.51986" xlink:href="#linearGradient8304" y1="146.6171" y2="18.72825"/>
<linearGradient gradientTransform="scale(.85537,1.16908)" gradientUnits="userSpaceOnUse" id="linearGradient9086" x1="22.02909" x2="146.39938" xlink:href="#linearGradient8304" y1="17.15256" y2="140.45406"/>
<pattern height="13.75001" id="pattern10642" patternTransform="translate(15.00000,-5)" patternUnits="userSpaceOnUse" width="14.14216">
<g fill="#fff">
<path d="m-17.52602,21.66815h5v5h-5z" transform="matrix(.70711,.70711,-.70711,.70711,31.25001,-2.92892)"/>
<path d="m-12.80331,26.39086h5.00001v5.00001h-5.00001z" transform="matrix(.70711,.70711,-.70711,.70711,31.25001,-2.92892)"/>
<path d="m-12.52602,16.66814h5.00001v5.00001h-5.00001z" transform="matrix(.70711,.70711,-.70711,.70711,31.25001,-2.92892)"/>
<path d="m-7.8033,21.39086h5.00001v5.00001h-5.00001z" transform="matrix(.70711,.70711,-.70711,.70711,31.25001,-2.92892)"/>
</g>
</pattern>
</defs>
<path d="m21,5h103c8.864,0 16,7.136 16,16v153c0,8.864-7.136,16-16,16h-103c-8.864,0-16-7.136-16-16v-153c0-8.864 7.136-16 16-16z" fill-opacity=".49804"/>
<path d="m17,1h103c8.864,0 16,7.136 16,16v153c0,8.864-7.136,16-16,16h-103c-8.864,0-16-7.136-16-16v-153c0-8.864 7.136-16 16-16z" fill="#fff"/>
<path d="m19,3h103c8.864,0 16,7.136 16,16v153c0,8.864-7.136,16-16,16h-103c-8.864,0-16-7.136-16-16v-153c0-8.864 7.136-16 16-16z" fill="#c7891f"/>
<path d="m18,2h103c8.864,0 16,7.136 16,16v153c0,8.864-7.136,16-16,16h-103c-8.864,0-16-7.136-16-16v-153c0-8.864 7.136-16 16-16z" fill="url(#linearGradient4853)"/>
<path d="m22.16667,10h94.41666c8.12534,0 14.66667,6.54133 14.66667,14.66667v140.24999c0,8.12534-6.54133,14.66667-14.66667,14.66667h-94.41666c-8.12533,0-14.66667-6.54133-14.66667-14.66667v-140.24999c0-8.12533 6.54133-14.66667 14.66667-14.66667z" fill="url(#linearGradient8318)"/>
<path d="m22.16667,10h94.41666c8.12534,0 14.66667,6.54133 14.66667,14.66667v140.24999c0,8.12534-6.54133,14.66667-14.66667,14.66667h-94.41666c-8.12533,0-14.66667-6.54133-14.66667-14.66667v-140.24999c0-8.12533 6.54133-14.66667 14.66667-14.66667z" fill="url(#pattern10642)"/>
<path d="m22.15625,9.375c-8.46077,0-15.28125,6.82048-15.28125,15.28125v140.25c0,8.46078 6.82048,15.3125 15.28125,15.3125h94.4375c8.46078,0 15.28125-6.85172 15.28125-15.3125v-140.25c0-8.46077-6.82047-15.28125-15.28125-15.28125h-94.4375zm0,1.25h94.4375c7.7899,0 14.03125,6.24136 14.03125,14.03125v140.25c0,7.7899-6.24135,14.0625-14.03125,14.0625h-94.4375c-7.78989,0-14.03125-6.2726-14.03125-14.0625v-140.25c0-7.78989 6.24136-14.03125 14.03125-14.03125z" fill="url(#linearGradient9086)"/>
</svg>
